<svg width="50" height="49" fill="none" xmlns="http://www.w3.org/2000/svg"><path d="M23.016.838c3.518-.627 8.522.204 11.92 1.718 3.398 1.514 6.215 4.41 8.47 7.362 2.255 2.948 4.414 6.775 5.064 10.33.649 3.555-.1 7.458-1.172 11.005-1.067 3.543-2.745 7.622-5.255 10.262-2.51 2.645-6.218 4.57-9.808 5.588-3.59 1.015-8.04 1.147-11.729.516-3.693-.627-7.51-2.081-10.414-4.298s-5.51-5.705-7.007-9.008A22.979 22.979 0 0 1 1.093 23.49c.239-3.71 1.466-8.268 3.422-11.44 1.956-3.172 4.8-5.684 8.318-7.586C16.351 2.564 23.271 1.138 25.626.642c2.354-.495 1.414.428 1.342.851m8.175 1.143c3.315 1.114 6.924 3.918 9.1 6.894 2.175 2.972 3.494 7.223 3.948 10.958.454 3.73-.136 7.829-1.223 11.432-1.092 3.603-2.817 7.57-5.31 10.186-2.49 2.617-6.176 4.518-9.65 5.513-3.47.995-7.486 1.146-11.175.46-3.685-.692-7.94-2.198-10.94-4.59-3-2.393-5.581-6.264-7.051-9.767-1.47-3.5-2.048-7.534-1.777-11.241.27-3.703 1.494-7.933 3.406-10.993 1.916-3.064 4.94-5.573 8.083-7.378C15.698 2.304 19.602.774 23.334.65c3.734-.127 9.718 2.305 11.61 2.697 1.892.387-.12-.607-.25-.364" fill="#ECECF4"/><path d="M23.016.838c3.518-.627 8.522.204 11.92 1.718 3.398 1.514 6.215 4.41 8.47 7.362 2.255 2.948 4.414 6.775 5.064 10.33.649 3.555-.1 7.458-1.172 11.005-1.067 3.543-2.745 7.622-5.255 10.262-2.51 2.645-6.218 4.57-9.808 5.588-3.59 1.015-8.04 1.147-11.729.516-3.693-.627-7.51-2.081-10.414-4.298s-5.51-5.705-7.007-9.008A22.979 22.979 0 0 1 1.093 23.49c.239-3.71 1.466-8.268 3.422-11.44 1.956-3.172 4.8-5.684 8.318-7.586C16.351 2.564 23.271 1.138 25.626.642c2.354-.495 1.414.428 1.342.851m8.175 1.143c3.315 1.114 6.924 3.918 9.1 6.894 2.175 2.972 3.494 7.223 3.948 10.958.454 3.73-.136 7.829-1.223 11.432-1.092 3.603-2.817 7.57-5.31 10.186-2.49 2.617-6.176 4.518-9.65 5.513-3.47.995-7.486 1.146-11.175.46-3.685-.692-7.94-2.198-10.94-4.59-3-2.393-5.581-6.264-7.051-9.767-1.47-3.5-2.048-7.534-1.777-11.241.27-3.703 1.494-7.933 3.406-10.993 1.916-3.064 4.94-5.573 8.083-7.378C15.698 2.304 19.602.774 23.334.65c3.734-.127 9.718 2.305 11.61 2.697 1.892.387-.12-.607-.25-.364" stroke="#030064" stroke-linecap="round"/><g clip-path="url(#a)"><path d="M25.462 16.195c.972-.09 2.013.207 2.932.64.919.432 1.86 1.204 2.584 1.956s1.394 1.608 1.76 2.555c.369.947.472 2.088.444 3.127-.029 1.038-.187 2.163-.611 3.103-.425.94-1.175 1.808-1.934 2.535-.76.728-1.665 1.46-2.62 1.83-.954.372-2.092.432-3.107.396-1.014-.035-2.04-.21-2.98-.61-.941-.401-1.961-1.032-2.663-1.792-.702-.761-1.194-1.776-1.547-2.77-.354-.994-.602-2.156-.574-3.194.027-1.037.328-2.111.738-3.03a7.943 7.943 0 0 1 1.729-2.488c.733-.703 1.538-1.354 2.675-1.732 1.137-.377 3.291-.531 4.145-.532.855 0 .999.369.98.526m-2.887-.597c.931-.217 1.987.19 2.933.514.946.323 1.95.787 2.74 1.427a8.174 8.174 0 0 1 2.004 2.41c.48.9.776 1.959.878 2.982.102 1.023.038 2.164-.265 3.159-.305.995-.89 1.999-1.558 2.811-.667.811-1.55 1.57-2.445 2.058a7.613 7.613 0 0 1-2.925.865c-1.014.092-2.206-.013-3.16-.311-.952-.298-1.788-.82-2.558-1.48-.77-.66-1.546-1.544-2.062-2.48-.515-.937-.938-2.09-1.033-3.14-.095-1.051.125-2.212.46-3.164.334-.951.901-1.745 1.549-2.545.647-.798 1.45-1.733 2.332-2.248.882-.515 2.44-.724 2.964-.842.523-.12.153-.029.174.127" fill="#FFE599"/><path d="M28.768 36.495c-1.136-.26-5.734-1.104-6.864-1.619-1.128-.515.09-1.038.088-1.47-.002-.433.063-.78-.1-1.122-.163-.343-.425-.532-.877-.934-.453-.401-1.307-.853-1.84-1.475-.533-.622-1.05-1.569-1.357-2.256-.307-.686-.395-1.12-.485-1.867-.092-.749-.173-1.795-.06-2.621.112-.826.434-1.631.733-2.334.299-.703.596-1.362 1.06-1.885.466-.523 1.175-.897 1.731-1.258.557-.36.951-.667 1.607-.908.656-.24 1.503-.513 2.33-.535.825-.023 1.897.182 2.627.4.73.22 1.236.65 1.75.915s.875.343 1.335.677c.46.335 1.054.817 1.43 1.329.375.51.58 1.075.823 1.74.245.665.55 1.563.64 2.248.09.685.003 1.194-.097 1.862-.099.668-.26 1.522-.5 2.148-.239.627-.607 1.147-.935 1.61a6.57 6.57 0 0 1-1.037 1.174c-.438.4-1.132.921-1.59 1.225-.458.305-.685.444-1.162.6-.476.157-1.108.274-1.693.338-.584.064-1.514.047-1.814.05m4.134 3.924c-1.143-.246-5.691-.951-6.803-1.438-1.113-.487.163-1.041.13-1.483-.034-.44-.154-.8-.332-1.163-.177-.363-.34-.596-.734-1.019-.393-.423-1.076-.928-1.628-1.519-.552-.59-1.351-1.338-1.683-2.027-.332-.69-.284-1.36-.309-2.111a12.37 12.37 0 0 1 .16-2.397c.135-.824.378-1.834.656-2.555.278-.72.575-1.254 1.01-1.769.437-.515 1.049-.942 1.605-1.321.557-.38 1.03-.72 1.738-.953.707-.234 1.684-.434 2.505-.449.822-.013 1.717.18 2.423.366.706.184 1.27.472 1.812.74.542.267.958.501 1.437.867.478.366 1.062.818 1.433 1.327.373.51.579 1.087.799 1.727.22.64.428 1.443.522 2.115.093.673.142 1.249.039 1.917-.102.667-.381 1.462-.654 2.091-.273.628-.629 1.161-.985 1.68a10.379 10.379 0 0 1-1.155 1.431c-.416.421-.878.825-1.344 1.092-.467.268-.977.375-1.456.514-.478.14-.835.274-1.417.322-.582.048-1.767-.066-2.073-.034M22.514 36.99c.917.208 4.573 1.006 5.5 1.184m-5.588-1.248c.891.181 4.548.905 5.48 1.112M23.508 39.279c.53.133 2.615.538 3.167.639m-3.282-.684c.562.155 2.915.685 3.481.807" stroke="#030064" stroke-linecap="round"/><path fill-rule="evenodd" clip-rule="evenodd" d="m15.512 17.637-3.587-2.04.513-.726 3.16 2.58" fill="#FFE599"/><path d="M15.48 17.55c-1.18-.855-2.861-1.68-3.5-1.97m3.458 2.012c-.878-.501-1.896-1.124-3.331-1.885m.01-.028c.016-.273.248-.485.354-.965m-.46.889c.232-.266.35-.634.51-.83m-.076.099c.985.497 1.554 1.261 2.958 2.713m-2.974-2.846c1.213 1.082 2.401 1.986 3.109 2.688m.038.022c-.018.034-.03.1-.1.197m.1-.187c-.03.073-.064.14-.085.17" stroke="#030064" stroke-linecap="round"/><path fill-rule="evenodd" clip-rule="evenodd" d="m19.53 14.32-1.878-3.263.913-.595.694 4.037" fill="#FFE599"/><path d="M19.22 14.376c-.23-1.13-.93-2.373-1.682-3.38m1.847 3.466c-.458-1.151-1.202-2.43-1.729-3.43m-.015.072c.356-.28.53-.337.882-.638m-.836.558c.277-.077.465-.25.9-.484m-.12.12c.38 1.347.69 2.85.862 3.903m-.743-3.985c.208.823.23 1.547.792 3.887" stroke="#030064" stroke-linecap="round"/><path fill-rule="evenodd" clip-rule="evenodd" d="m24.996 12.915.682-3.843 1.238.124-1.74 3.462" fill="#FFE599"/><path d="M25.186 12.77c-.032-1.202.207-2.678.212-3.694m-.394 3.912c.098-.798.284-1.632.444-3.94m.194.064c.396-.036.666.131 1.018.1m-1.106-.153c.293-.011.697.168 1.274.235m-.201-.192c-.358 1.447-.667 2.585-1.397 3.507m1.497-3.334c-.64 1.385-1.189 2.85-1.543 3.439m.08.065c-.078.044-.09.08-.192.156m.202-.168a1.602 1.602 0 0 0-.233.134" stroke="#030064" stroke-linecap="round"/><path fill-rule="evenodd" clip-rule="evenodd" d="m31.27 14.273 1.932-3.3.986.958-2.956 2.11" fill="#FFE599"/><path d="M31.213 14.048c.307-.498.818-1.09 1.918-2.836m-2.023 3.05c.775-1.257 1.508-2.278 1.967-3.192m-.05.034c.285.186.56.389.912.687m-.93-.74c.306.31.702.458.984.76m.062-.1c-.738.574-1.287 1.053-2.779 2.663m2.706-2.64c-.803.789-1.635 1.466-2.863 2.574" stroke="#030064" stroke-linecap="round"/><path fill-rule="evenodd" clip-rule="evenodd" d="m35.31 18.27 3.41-1.536.455 1.448-3.685.553" fill="#FFE599"/><path d="M35.32 18.252c1.226-.764 2.534-1.25 3.518-1.612m-3.466 1.576c.805-.29 1.514-.655 3.307-1.489m-.156-.14c.268.625.568.732.734 1.539m-.58-1.386c.196.35.24.674.483 1.317m.063.065c-1.339-.024-2.511.199-3.665.317m3.617-.42c-1.304.158-2.42.303-3.59.63m-.04-.07c-.1-.046-.168-.148-.226-.297m.197.317c-.04-.104-.103-.184-.186-.335" stroke="#030064" stroke-linecap="round"/></g><defs><clipPath id="a"><path fill="#fff" transform="translate(11.086 8.155)" d="M0 0h29.067v32.779H0z"/></clipPath></defs></svg>