<svg width="50" height="50" fill="none" xmlns="http://www.w3.org/2000/svg"><path d="M23.016 1.338c3.518-.627 8.522.204 11.92 1.718 3.398 1.514 6.215 4.41 8.47 7.362 2.255 2.948 4.414 6.775 5.064 10.33.649 3.555-.1 7.458-1.172 11.005-1.067 3.543-2.745 7.622-5.255 10.262-2.51 2.645-6.218 4.57-9.808 5.588-3.59 1.015-8.04 1.147-11.729.516-3.693-.627-7.51-2.081-10.414-4.298s-5.51-5.705-7.007-9.008A22.979 22.979 0 0 1 1.093 23.99c.239-3.71 1.466-8.268 3.422-11.44 1.956-3.172 4.8-5.684 8.318-7.586 3.518-1.901 10.438-3.327 12.793-3.823 2.354-.495 1.414.428 1.342.851m8.175 1.143c3.315 1.114 6.924 3.918 9.1 6.894 2.175 2.972 3.494 7.223 3.948 10.958.454 3.73-.136 7.829-1.223 11.432-1.092 3.603-2.817 7.57-5.31 10.186-2.49 2.617-6.176 4.518-9.65 5.513-3.47.995-7.486 1.146-11.175.46-3.685-.692-7.94-2.198-10.94-4.59-3-2.393-5.581-6.264-7.051-9.767-1.47-3.5-2.048-7.534-1.777-11.241.27-3.703 1.494-7.933 3.406-10.993 1.916-3.064 4.94-5.573 8.083-7.378 3.144-1.806 7.048-3.336 10.78-3.46 3.734-.127 9.718 2.305 11.61 2.697 1.892.387-.12-.607-.25-.364" fill="#ECECF4"/><path d="M23.016 1.338c3.518-.627 8.522.204 11.92 1.718 3.398 1.514 6.215 4.41 8.47 7.362 2.255 2.948 4.414 6.775 5.064 10.33.649 3.555-.1 7.458-1.172 11.005-1.067 3.543-2.745 7.622-5.255 10.262-2.51 2.645-6.218 4.57-9.808 5.588-3.59 1.015-8.04 1.147-11.729.516-3.693-.627-7.51-2.081-10.414-4.298s-5.51-5.705-7.007-9.008A22.979 22.979 0 0 1 1.093 23.99c.239-3.71 1.466-8.268 3.422-11.44 1.956-3.172 4.8-5.684 8.318-7.586 3.518-1.901 10.438-3.327 12.793-3.823 2.354-.495 1.414.428 1.342.851m8.175 1.143c3.315 1.114 6.924 3.918 9.1 6.894 2.175 2.972 3.494 7.223 3.948 10.958.454 3.73-.136 7.829-1.223 11.432-1.092 3.603-2.817 7.57-5.31 10.186-2.49 2.617-6.176 4.518-9.65 5.513-3.47.995-7.486 1.146-11.175.46-3.685-.692-7.94-2.198-10.94-4.59-3-2.393-5.581-6.264-7.051-9.767-1.47-3.5-2.048-7.534-1.777-11.241.27-3.703 1.494-7.933 3.406-10.993 1.916-3.064 4.94-5.573 8.083-7.378 3.144-1.806 7.048-3.336 10.78-3.46 3.734-.127 9.718 2.305 11.61 2.697 1.892.387-.12-.607-.25-.364" stroke="#030064" stroke-linecap="round"/><path fill-rule="evenodd" clip-rule="evenodd" d="M17.56 20.206c-.76.878-3.296 8.032-4.442 6.348-1.145-1.687-4.567-15.113-2.43-16.458 2.135-1.344 14.2 6.597 15.244 8.39 1.044 1.794-7.617 2.03-8.982 2.366" fill="#FFBC85"/><path d="M16.953 21c-.728.956-3.307 7.568-4.3 5.742-.99-1.827-3.977-15.362-1.65-16.705 2.325-1.344 14.596 6.854 15.604 8.645 1.008 1.79-7.997 1.801-9.557 2.099m.33.07c-.623.846-3.09 7.178-4.195 5.42-1.102-1.756-4.684-14.614-2.426-15.962 2.255-1.346 14.84 6.119 15.968 7.882 1.127 1.76-7.684 2.228-9.201 2.694" stroke="#46464F" stroke-linecap="round"/><path fill-rule="evenodd" clip-rule="evenodd" d="M31.157 31.79c.761.878 3.297 8.032 4.442 6.348 1.146-1.687 4.568-15.113 2.432-16.458-2.136-1.344-14.201 6.597-15.245 8.39-1.044 1.794 7.617 2.03 8.982 2.366" fill="#FFBC85"/><path d="M31.766 32.583c.728.957 3.307 7.57 4.3 5.743.99-1.827 3.976-15.362 1.65-16.705-2.325-1.344-14.596 6.854-15.604 8.645-1.008 1.79 7.996 1.801 9.557 2.099m-.33.07c.623.846 3.09 7.178 4.195 5.42 1.102-1.755 4.684-14.614 2.426-15.962-2.256-1.346-14.84 6.119-15.968 7.882-1.128 1.76 7.684 2.228 9.201 2.694" stroke="#46464F" stroke-linecap="round"/></svg>